<?xml version="1.0" standalone="no"?>
<!DOCTYPE svg PUBLIC "-//W3C//DTD SVG 20010904//EN"
 "http://www.w3.org/TR/2001/REC-SVG-20010904/DTD/svg10.dtd">
<svg version="1.0" xmlns="http://www.w3.org/2000/svg"
 width="300.000000pt" height="300.000000pt" viewBox="0 0 300.000000 300.000000"
 preserveAspectRatio="xMidYMid meet">
<metadata>
Created by potrace 1.14, written by Peter Selinger 2001-2017
</metadata>
<g transform="translate(0.000000,300.000000) scale(0.100000,-0.100000)"
fill="#000000" stroke="none">
<path d="M2212 2810 c-11 -11 -24 -25 -29 -33 -12 -20 -55 -44 -93 -52 -47
-11 -171 -13 -192 -3 -10 5 -18 3 -21 -5 -4 -9 -6 -9 -6 1 -1 10 -6 10 -21 2
-14 -8 -20 -8 -20 0 0 6 -5 8 -10 5 -6 -4 -32 -9 -57 -12 -26 -2 -60 -11 -75
-19 -16 -8 -28 -12 -28 -9 0 7 -46 -33 -79 -68 -52 -56 -59 -65 -54 -71 3 -3
1 -12 -5 -19 -7 -8 -9 -17 -5 -20 3 -4 1 -7 -6 -7 -7 0 -10 -4 -7 -8 3 -5 -1
-19 -8 -33 -7 -13 -11 -30 -8 -37 2 -6 -1 -12 -6 -12 -6 0 -8 -8 -5 -19 4 -15
-1 -18 -34 -15 -21 1 -50 -4 -66 -11 -15 -8 -25 -9 -21 -4 3 6 -3 5 -15 -3
-16 -10 -23 -10 -33 0 -6 6 -21 12 -33 12 -19 -1 -19 -1 -2 -14 18 -14 23 -61
7 -71 -10 -6 6 -44 25 -57 5 -4 -1 -16 -14 -27 -19 -17 -21 -22 -8 -26 15 -7
12 -44 -4 -46 -5 -1 -15 -2 -21 -3 -7 -1 -12 -8 -10 -15 1 -7 -1 -10 -6 -7 -5
3 -29 -7 -54 -23 -43 -27 -59 -39 -113 -86 -24 -21 -40 -90 -24 -101 5 -3 7
-9 5 -13 -9 -14 38 -32 70 -28 31 4 32 3 23 -26 -8 -27 -4 -33 34 -68 l42 -39
-37 -35 c-21 -19 -34 -35 -30 -35 4 0 -2 -7 -12 -15 -11 -8 -16 -15 -11 -15 4
0 -3 -10 -17 -22 -30 -26 -68 -94 -68 -121 0 -20 29 -35 39 -20 3 5 20 13 36
17 17 4 39 15 49 24 15 13 18 14 12 2 -6 -13 -6 -13 6 0 7 9 22 15 33 15 11 0
31 6 45 12 22 11 26 10 32 -8 6 -15 0 -32 -19 -60 -16 -21 -33 -39 -40 -39
-10 0 -26 -32 -26 -50 0 -3 -8 -11 -19 -18 -10 -7 -16 -17 -13 -22 3 -5 -3
-11 -12 -14 -23 -7 -73 -50 -73 -62 0 -5 -9 -27 -21 -48 -11 -21 -18 -45 -15
-52 3 -8 2 -14 -2 -14 -4 0 -7 -17 -6 -37 2 -52 -5 -71 -27 -78 -10 -4 -19
-11 -19 -16 0 -6 4 -8 9 -5 18 12 5 -64 -14 -81 -18 -17 -18 -17 -4 2 13 19
13 19 -4 6 -16 -12 -16 -17 -5 -25 27 -22 8 -118 -29 -139 -7 -5 -10 -13 -7
-19 4 -7 2 -8 -4 -4 -6 4 -22 0 -35 -9 -13 -8 -35 -16 -50 -17 -15 -1 -27 -5
-27 -9 0 -3 -10 -4 -23 -2 -14 3 -23 12 -23 23 0 10 5 18 10 17 17 -3 15 41
-2 48 -12 5 -11 10 8 30 18 19 20 25 8 25 -9 0 -21 -7 -28 -15 -36 -44 -103
33 -72 82 10 16 72 27 72 13 0 -6 5 -8 10 -5 22 13 8 25 -30 25 -22 0 -40 4
-40 9 0 9 -20 17 -73 31 -19 5 -30 4 -33 -5 -8 -20 -37 -12 -69 18 -17 15 -39
30 -50 32 -26 7 -79 2 -86 -7 -3 -5 -26 -12 -52 -17 -26 -4 -54 -14 -62 -21
-18 -15 -20 -51 -4 -67 6 -6 8 -17 3 -24 -14 -23 -11 -48 8 -69 18 -19 48 -18
48 3 0 6 3 7 6 4 4 -4 14 2 23 12 24 27 43 30 76 13 40 -20 53 -39 49 -74 -6
-50 30 -101 72 -101 14 1 24 -5 24 -13 0 -8 4 -14 8 -14 15 0 7 -48 -12 -69
-14 -16 -16 -21 -5 -21 8 0 10 -3 4 -8 -13 -9 -19 -35 -6 -28 5 3 11 -1 15 -9
3 -9 19 -15 41 -15 l37 0 -3 -42 c-3 -44 -28 -100 -41 -92 -7 4 -15 -17 -23
-56 -7 -39 54 -80 108 -71 4 0 7 -3 7 -8 0 -8 40 -17 115 -28 37 -5 70 -11 70
-13 0 -2 20 -5 114 -14 35 -4 68 -9 72 -12 5 -3 9 1 9 8 0 9 3 9 8 2 6 -10 27
-12 137 -18 17 0 35 -4 42 -9 6 -4 14 -3 17 1 5 9 40 8 109 -1 15 -3 30 -1 32
3 4 7 40 6 40 0 0 -6 67 -4 71 2 3 4 16 3 29 -2 15 -6 27 -6 30 0 4 6 14 7 23
2 21 -9 53 -9 70 1 7 5 12 3 12 -3 0 -6 5 -8 11 -5 5 4 63 9 127 11 113 3 174
8 237 19 17 3 41 7 55 9 14 3 25 5 25 7 0 1 11 2 25 4 50 3 88 17 106 36 20
23 30 69 14 69 -5 0 -10 6 -10 14 0 8 -5 16 -12 18 -7 3 -13 29 -14 66 -2 61
4 76 35 77 7 0 20 9 27 20 11 17 11 25 -1 49 -28 54 -8 111 36 104 21 -3 71
34 75 55 1 4 3 10 4 15 1 4 1 17 0 29 -2 31 33 48 69 33 19 -8 27 -18 26 -33
-2 -24 20 -46 47 -47 47 -1 80 36 92 102 2 15 7 32 11 38 3 6 -1 13 -10 16 -9
4 -14 12 -12 18 6 15 -49 53 -86 60 -16 3 -36 13 -45 23 -10 10 -26 18 -37 17
-37 -4 -67 -13 -79 -24 -7 -5 -15 -7 -19 -4 -3 3 -8 -3 -11 -14 -7 -21 -42
-40 -66 -37 -69 11 -148 13 -159 6 -16 -10 -17 -74 -2 -114 7 -18 7 -27 -2
-30 -15 -6 13 -62 31 -62 7 0 11 -4 10 -10 -8 -28 -188 17 -188 47 0 6 -7 16
-16 22 -13 10 -13 14 5 35 12 13 21 29 21 34 0 6 3 7 6 4 10 -9 46 12 39 24
-4 5 -2 9 3 9 13 0 3 73 -11 82 -9 6 -8 8 3 8 9 0 11 3 5 8 -9 6 -14 18 -19
47 -1 6 -5 15 -9 22 -4 6 -3 14 3 18 6 4 4 18 -7 38 -22 42 -34 107 -19 104 6
-1 11 8 10 21 0 12 4 22 9 22 6 0 7 3 4 7 -10 9 23 43 43 43 18 0 91 75 82 85
-3 3 0 5 7 5 7 0 11 13 9 35 -2 28 -8 37 -36 51 -25 12 -31 19 -23 28 6 7 8
16 4 19 -3 4 -2 7 4 7 11 0 13 8 17 73 1 26 0 47 -4 47 -4 0 -6 10 -5 23 1 12
0 27 -4 32 -10 18 -9 35 2 35 7 0 5 5 -3 10 -9 6 -10 10 -3 10 13 0 57 90 48
98 -2 3 -7 -2 -11 -11 -5 -13 -9 -14 -24 -5 -10 7 -16 16 -14 20 3 4 0 8 -5 8
-6 0 -11 9 -11 20 0 11 -5 20 -11 20 -5 0 -8 4 -5 9 3 5 0 21 -8 36 -11 21
-12 32 -3 45 8 14 7 22 -5 34 -9 9 -14 24 -11 36 4 14 -3 24 -26 37 -17 10
-30 24 -29 32 2 8 7 13 11 12 4 -1 19 5 33 14 14 9 28 14 31 11 4 -3 11 -2 17
2 6 5 30 14 54 22 48 15 97 55 87 71 -4 6 -11 6 -18 1 -7 -5 -19 -8 -27 -6 -8
2 -28 6 -45 9 -62 14 -81 16 -115 16 -55 0 -106 -10 -155 -31 -51 -22 -53 -22
-78 -9 -10 6 -14 15 -10 22 4 7 9 21 10 31 4 24 33 57 43 51 4 -3 10 2 13 10
9 22 207 66 207 46 0 -3 23 -6 52 -7 30 0 54 -6 56 -12 2 -8 9 -9 22 -2 12 6
20 6 22 0 2 -5 19 -12 38 -15 42 -7 73 -13 80 -15 3 -1 31 -2 63 -1 60 0 144
32 154 58 3 7 10 13 15 13 12 0 50 45 60 71 9 24 -18 33 -31 11 -6 -9 -11 -13
-11 -9 0 4 -12 -5 -27 -20 -32 -33 -30 -32 -60 -39 -13 -4 -23 -10 -23 -13 0
-11 -131 -5 -161 7 -15 6 -30 8 -33 5 -3 -4 -6 -1 -6 5 0 7 -7 12 -15 12 -8 0
-23 4 -33 9 -64 33 -110 45 -185 46 -45 1 -95 -2 -112 -7 -84 -24 -103 -31
-143 -49 -24 -11 -56 -31 -70 -45 -15 -13 -30 -24 -34 -24 -11 0 -38 -56 -31
-63 3 -4 -4 -5 -16 -2 -48 9 -63 52 -47 132 13 62 76 163 99 155 4 -1 7 2 7 8
0 20 76 40 174 45 133 7 174 14 216 36 44 23 80 54 80 68 0 6 4 11 9 11 5 0
11 14 13 30 3 17 4 30 3 30 -1 0 -11 -9 -23 -20z"/>
<path d="M810 914 c0 -9 5 -12 12 -8 7 5 8 3 2 -7 -11 -18 -14 -39 -6 -39 4 0
13 9 20 21 10 16 10 24 1 35 -15 19 -29 18 -29 -2z"/>
</g>
</svg>
